<?xml version="1.0" encoding="UTF-8" standalone="no"?><svg xmlns="http://www.w3.org/2000/svg" xmlns:xlink="http://www.w3.org/1999/xlink" contentScriptType="application/ecmascript" contentStyleType="text/css" height="547px" preserveAspectRatio="none" style="width:441px;height:547px;" version="1.1" viewBox="0 0 441 547" width="441px" zoomAndPan="magnify"><defs><filter height="300%" id="fi9a3mmdqlh2y" width="300%" x="-1" y="-1"><feGaussianBlur result="blurOut" stdDeviation="2.0"/><feColorMatrix in="blurOut" result="blurOut2" type="matrix" values="0 0 0 0 0 0 0 0 0 0 0 0 0 0 0 0 0 0 .4 0"/><feOffset dx="4.0" dy="4.0" in="blurOut2" result="blurOut3"/><feBlend in="SourceGraphic" in2="blurOut3" mode="normal"/></filter></defs><g><text fill="#000000" font-family="sans-serif" font-size="18" lengthAdjust="spacingAndGlyphs" textLength="234" x="102.5" y="26.708">Parameter-Tuning-Prozess</text><ellipse cx="220" cy="40.9531" fill="#000000" filter="url(#fi9a3mmdqlh2y)" rx="10" ry="10" style="stroke: none; stroke-width: 1.0;"/><rect fill="#FEFECE" filter="url(#fi9a3mmdqlh2y)" height="33.9688" rx="12.5" ry="12.5" style="stroke: #A80036; stroke-width: 1.5;" width="340" x="50" y="70.9531"/><text fill="#000000" font-family="sans-serif" font-size="12" lengthAdjust="spacingAndGlyphs" textLength="320" x="60" y="92.0918">Bestimme Menge an Werten zum Parameter-Tuning</text><rect fill="#FEFECE" filter="url(#fi9a3mmdqlh2y)" height="33.9688" rx="12.5" ry="12.5" style="stroke: #A80036; stroke-width: 1.5;" width="180" x="130" y="168.9219"/><text fill="#000000" font-family="sans-serif" font-size="12" lengthAdjust="spacingAndGlyphs" textLength="160" x="140" y="190.0605">Traningsdatensatz ziehen</text><rect fill="#FEFECE" filter="url(#fi9a3mmdqlh2y)" height="33.9688" rx="12.5" ry="12.5" style="stroke: #A80036; stroke-width: 1.5;" width="132" x="154" y="222.8906"/><text fill="#000000" font-family="sans-serif" font-size="12" lengthAdjust="spacingAndGlyphs" textLength="112" x="164" y="244.0293">Modell berechnen</text><rect fill="#FEFECE" filter="url(#fi9a3mmdqlh2y)" height="33.9688" rx="12.5" ry="12.5" style="stroke: #A80036; stroke-width: 1.5;" width="272" x="84" y="276.8594"/><text fill="#000000" font-family="sans-serif" font-size="12" lengthAdjust="spacingAndGlyphs" textLength="252" x="94" y="297.998">Modellgüte im Testdatensatz berechnen</text><polygon fill="#FEFECE" filter="url(#fi9a3mmdqlh2y)" points="132,124.9219,308,124.9219,320,136.9219,308,148.9219,132,148.9219,120,136.9219,132,124.9219" style="stroke: #A80036; stroke-width: 1.5;"/><text fill="#000000" font-family="sans-serif" font-size="11" lengthAdjust="spacingAndGlyphs" textLength="176" x="132" y="140.73">weiterer Tuningwert zu testen?</text><rect fill="#FEFECE" filter="url(#fi9a3mmdqlh2y)" height="33.9688" rx="12.5" ry="12.5" style="stroke: #A80036; stroke-width: 1.5;" width="266" x="87" y="352.8281"/><text fill="#000000" font-family="sans-serif" font-size="12" lengthAdjust="spacingAndGlyphs" textLength="246" x="97" y="373.9668">Fasse Werte der Modellgüte zusammen</text><rect fill="#FEFECE" filter="url(#fi9a3mmdqlh2y)" height="33.9688" rx="12.5" ry="12.5" style="stroke: #A80036; stroke-width: 1.5;" width="335" x="52.5" y="406.7969"/><text fill="#000000" font-family="sans-serif" font-size="12" lengthAdjust="spacingAndGlyphs" textLength="315" x="62.5" y="427.9355">Finde Tuningparameterwerte für beste Modellgüte</text><rect fill="#FEFECE" filter="url(#fi9a3mmdqlh2y)" height="33.9688" rx="12.5" ry="12.5" style="stroke: #A80036; stroke-width: 1.5;" width="420" x="10" y="460.7656"/><text fill="#000000" font-family="sans-serif" font-size="12" lengthAdjust="spacingAndGlyphs" textLength="400" x="20" y="481.9043">Berechne Modell und teste Modellgüte in Validierungsdatensatz</text><ellipse cx="220" cy="525.7344" fill="#FFFFFF" filter="url(#fi9a3mmdqlh2y)" rx="11" ry="11" style="stroke: #000000; stroke-width: 1.0;"/><ellipse cx="220" cy="525.7344" fill="#000000" rx="6" ry="6" style="stroke: #7F7F7F; stroke-width: 1.0;"/><line style="stroke: #A80036; stroke-width: 1.5;" x1="220" x2="220" y1="50.9531" y2="70.9531"/><polygon fill="#A80036" points="216,60.9531,220,70.9531,224,60.9531,220,64.9531" style="stroke: #A80036; stroke-width: 1.0;"/><line style="stroke: #A80036; stroke-width: 1.5;" x1="220" x2="220" y1="202.8906" y2="222.8906"/><polygon fill="#A80036" points="216,212.8906,220,222.8906,224,212.8906,220,216.8906" style="stroke: #A80036; stroke-width: 1.0;"/><line style="stroke: #A80036; stroke-width: 1.5;" x1="220" x2="220" y1="256.8594" y2="276.8594"/><polygon fill="#A80036" points="216,266.8594,220,276.8594,224,266.8594,220,270.8594" style="stroke: #A80036; stroke-width: 1.0;"/><line style="stroke: #A80036; stroke-width: 1.5;" x1="220" x2="220" y1="148.9219" y2="168.9219"/><polygon fill="#A80036" points="216,158.9219,220,168.9219,224,158.9219,220,162.9219" style="stroke: #A80036; stroke-width: 1.0;"/><line style="stroke: #A80036; stroke-width: 1.5;" x1="220" x2="220" y1="310.8281" y2="320.8281"/><line style="stroke: #A80036; stroke-width: 1.5;" x1="220" x2="368" y1="320.8281" y2="320.8281"/><polygon fill="#A80036" points="364,237.875,368,227.875,372,237.875,368,233.875" style="stroke: #A80036; stroke-width: 1.5;"/><line style="stroke: #A80036; stroke-width: 1.5;" x1="368" x2="368" y1="136.9219" y2="320.8281"/><line style="stroke: #A80036; stroke-width: 1.5;" x1="368" x2="320" y1="136.9219" y2="136.9219"/><polygon fill="#A80036" points="330,132.9219,320,136.9219,330,140.9219,326,136.9219" style="stroke: #A80036; stroke-width: 1.0;"/><line style="stroke: #A80036; stroke-width: 1.5;" x1="120" x2="72" y1="136.9219" y2="136.9219"/><polygon fill="#A80036" points="68,223.875,72,233.875,76,223.875,72,227.875" style="stroke: #A80036; stroke-width: 1.5;"/><line style="stroke: #A80036; stroke-width: 1.5;" x1="72" x2="72" y1="136.9219" y2="332.8281"/><line style="stroke: #A80036; stroke-width: 1.5;" x1="72" x2="220" y1="332.8281" y2="332.8281"/><line style="stroke: #A80036; stroke-width: 1.5;" x1="220" x2="220" y1="332.8281" y2="352.8281"/><polygon fill="#A80036" points="216,342.8281,220,352.8281,224,342.8281,220,346.8281" style="stroke: #A80036; stroke-width: 1.0;"/><line style="stroke: #A80036; stroke-width: 1.5;" x1="220" x2="220" y1="104.9219" y2="124.9219"/><polygon fill="#A80036" points="216,114.9219,220,124.9219,224,114.9219,220,118.9219" style="stroke: #A80036; stroke-width: 1.0;"/><line style="stroke: #A80036; stroke-width: 1.5;" x1="220" x2="220" y1="386.7969" y2="406.7969"/><polygon fill="#A80036" points="216,396.7969,220,406.7969,224,396.7969,220,400.7969" style="stroke: #A80036; stroke-width: 1.0;"/><line style="stroke: #A80036; stroke-width: 1.5;" x1="220" x2="220" y1="440.7656" y2="460.7656"/><polygon fill="#A80036" points="216,450.7656,220,460.7656,224,450.7656,220,454.7656" style="stroke: #A80036; stroke-width: 1.0;"/><line style="stroke: #A80036; stroke-width: 1.5;" x1="220" x2="220" y1="494.7344" y2="514.7344"/><polygon fill="#A80036" points="216,504.7344,220,514.7344,224,504.7344,220,508.7344" style="stroke: #A80036; stroke-width: 1.0;"/><!--
@startuml
title Parameter-Tuning-Prozess

start

:Bestimme Menge an Werten zum Parameter-Tuning;

while (weiterer Tuningwert zu testen?)

    :Traningsdatensatz ziehen;
    :Modell berechnen;
    :Modellgüte im Testdatensatz berechnen;
endwhile



:Fasse Werte der Modellgüte zusammen;

:Finde Tuningparameterwerte für beste Modellgüte;

:Berechne Modell und teste Modellgüte in Validierungsdatensatz;

stop
@enduml

PlantUML version 1.2019.08(Sat Jul 13 19:25:14 UTC 2019)
(GPL source distribution)
Java Runtime: Java(TM) SE Runtime Environment
JVM: Java HotSpot(TM) 64-Bit Server VM
Java Version: 1.7.0_25-b15
Operating System: Linux
Default Encoding: UTF-8
Language: en
Country: US
--></g></svg>